Genre:Comedy
Language:English
http://www.imdb.com/title/tt1122775/
Source:Limited.720p.Bluray.X264.DIMENSION

General
Complete name :Rosencrantz.and.Guildenstern.Are.Undead.2009.Limited.720p.BRRip.H264.Feel-Free
Format : MPEG-4
Format profile : Base Media
Codec ID : mp42
File size : 1.25 GiB
Duration : 1h 22mn
Overall bit rate : 2 163 Kbps
Video #1
Codec ID : avc1
Codec ID/Info : Advanced Video Coding
Duration : 1h 22mn
Bit rate mode : Variable
Bit rate : 1 683 Kbps
Width : 1 280 pixels
Height : 720 pixels
Display aspect ratio : 16:9
Frame rate mode : Constant
Frame rate : 23.976 fps
Resolution : 24 bits
Colorimetry : 4:2:0
Scan type : Progressive
Bits/(Pixel*Frame) : 0.076
Stream size : 997 MiB (78%)
Audio #2
ID : 2
Format : AAC
Format/Info : Advanced Audio Codec
Format version : Version 4
Format profile : LC
Format settings, SBR : No
Codec ID : 40
Duration : 1h 22mn
Bit rate mode : Constant
Bit rate : 476 Kbps
Nominal bit rate : 480 Kbps
Channel(s) : 6 channels
Channel positions : Front: L C R, Rear: L R, LFE
Sampling rate : 48.0 KHz
Resolution : 16 bits
Stream size : 282 MiB (22%)


Plot:
Julian Marsh is an out of work ladies' man who lands a job directing a bizarre adaptation of Hamlet. After casting his best friend and his ex-girlfriend in the show, Julian finds himself in the middle of a two thousand year old conspiracy that explains the connection between Shakespeare, the Holy Grail and some seriously sexy vampires...

TRAILER:
http://www.imdb.com/video/screenplay/vi2673215257/ 
http://rapidhdd.com/images/388670vlcsnap-2010-11-15-07h28m09s13.png 
http://www.rapidhdd.com/images/162506vlcsnap-2010-11-15-07h31m09s58.png 
http://www.rapidhdd.com/images/18771vlcsnap-2010-11-15-07h36m59s221.png 
http://www.rapidhdd.com/images/219883vlcsnap-2010-11-15-07h34m02s245.png 
http://www.rapidhdd.com/images/771351vlcsnap-2010-11-15-07h31m46s167.png
